<svg xmlns="http://www.w3.org/2000/svg" viewBox="0 0 320 200" role="img" aria-labelledby="t d"><title id="t">Business website</title><desc id="d">Original Weburix illustration</desc><defs><linearGradient id="g" x1="0" x2="1" y1="0" y2="1"><stop stop-color="#2878ff"/><stop offset="1" stop-color="#61a4ff"/></linearGradient><radialGradient id="r"><stop stop-color="#2878ff" stop-opacity=".36"/><stop offset="1" stop-color="#2878ff" stop-opacity="0"/></radialGradient></defs><rect width="320" height="200" rx="28" fill="#090d17"/><circle cx="256" cy="34" r="96" fill="url(#r)"/><rect x="28" y="28" width="264" height="144" rx="20" fill="#101827" stroke="#29436b"/><rect x="54" y="50" width="112" height="104" rx="16" fill="#0b1321" stroke="#31517f"/><rect x="176" y="50" width="90" height="46" rx="14" fill="#132039"/><rect x="176" y="106" width="90" height="48" rx="14" fill="#132039"/><rect x="72" y="72" width="72" height="12" rx="6" fill="url(#g)"/><rect x="72" y="96" width="58" height="7" rx="4" fill="#334766"/><rect x="72" y="112" width="74" height="7" rx="4" fill="#293b57"/><circle cx="202" cy="73" r="12" fill="#2878ff"/><path d="M195 73l5 5 10-12" fill="none" stroke="white" stroke-width="4" stroke-linecap="round" stroke-linejoin="round"/><path d="M193 132h18m-9-9v18" stroke="#61a4ff" stroke-width="5" stroke-linecap="round"/></svg>