<svg width="1600" height="900" viewBox="0 0 1600 900" fill="none" xmlns="http://www.w3.org/2000/svg" role="img" aria-label="Weburix banner">
  <rect width="1600" height="900" fill="#05070D"/>
  <circle cx="1280" cy="130" r="360" fill="#3B82FF" fill-opacity="0.20"/>
  <circle cx="170" cy="810" r="320" fill="#3B82FF" fill-opacity="0.12"/>
  <rect x="120" y="150" width="1360" height="600" rx="56" fill="white" fill-opacity="0.055" stroke="white" stroke-opacity="0.14" stroke-width="2"/>
  <rect x="190" y="228" width="176" height="176" rx="44" fill="#05070D" stroke="#1B2740" stroke-width="8"/>
  <path d="M224 284L242 354H264L278 307L292 354H314L332 284H310L302 329L289 284H267L254 329L246 284H224Z" fill="#F7FAFF"/>
  <path d="M334 354H309L335 284H363L334 354Z" fill="#3B82FF"/>
  <path d="M218 381H338" stroke="#3B82FF" stroke-width="10" stroke-linecap="round"/>
  <text x="414" y="335" fill="#F7FAFF" font-family="Aptos Display, Avenir Next, Helvetica Neue, Arial, sans-serif" font-size="116" font-weight="850" letter-spacing="-5">Webur</text>
  <text x="798" y="335" fill="#3B82FF" font-family="Aptos Display, Avenir Next, Helvetica Neue, Arial, sans-serif" font-size="116" font-weight="900" letter-spacing="-5">ix</text>
  <text x="420" y="400" fill="#8EA1C4" font-family="Aptos Display, Avenir Next, Helvetica Neue, Arial, sans-serif" font-size="28" font-weight="800" letter-spacing="6">WEB DEVELOPMENT · SEO · DIGITAL GROWTH</text>
  <text x="190" y="560" fill="#F7FAFF" font-family="Aptos Display, Avenir Next, Helvetica Neue, Arial, sans-serif" font-size="56" font-weight="780" letter-spacing="-2">Fast, clean and affordable websites from Munich.</text>
  <rect x="190" y="625" width="390" height="62" rx="31" fill="#3B82FF"/>
  <text x="226" y="665" fill="white" font-family="Aptos Display, Avenir Next, Helvetica Neue, Arial, sans-serif" font-size="22" font-weight="850">weburix.com</text>
  <rect x="620" y="625" width="410" height="62" rx="31" fill="white" fill-opacity="0.08" stroke="white" stroke-opacity="0.14"/>
  <text x="656" y="665" fill="#DDE8FF" font-family="Aptos Display, Avenir Next, Helvetica Neue, Arial, sans-serif" font-size="22" font-weight="800">info@weburix.com</text>
</svg>
