<svg xmlns="http://www.w3.org/2000/svg" viewBox="0 0 48 48" role="img" aria-labelledby="t"><title id="t">WhatsApp</title><rect width="48" height="48" rx="14" fill="#25d366"/><path d="M24 10.5c-7.5 0-13.5 5.8-13.5 13 0 2.6.8 5.1 2.3 7.2l-1.5 6.8 7-1.8c1.8.9 3.8 1.4 5.8 1.4 7.5 0 13.5-5.8 13.5-13S31.5 10.5 24 10.5Z" fill="#fff"/><path d="M31.4 27.3c-.4-.2-2.4-1.2-2.8-1.3-.4-.1-.7-.2-1 .3-.3.4-1.1 1.3-1.4 1.6-.3.3-.5.3-.9.1-2.4-1.1-4-2.1-5.6-4.7-.4-.7.4-.7 1.1-2 .1-.3.1-.6 0-.8-.1-.2-1-2.4-1.4-3.3-.4-.9-.8-.8-1-.8h-.8c-.3 0-.8.1-1.2.6-.4.4-1.5 1.5-1.5 3.7s1.6 4.3 1.8 4.6c.2.3 3.2 5 7.9 6.8 2.9 1.2 4 1.3 5.4 1.1.9-.1 2.4-1 2.8-2 .3-1 .3-1.8.2-2-.2-.3-.5-.4-.9-.6Z" fill="#25d366"/></svg>
